<svg width="110" height="64" viewBox="0 0 110 64" fill="none" xmlns="http://www.w3.org/2000/svg">
<g clip-path="url(#clip0_26_27)">
<path d="M16.1511 35.3994L28.4929 0.141846H32.3021L16.1511 46.165L0 0.141846H3.80658L16.1511 35.3994Z" fill="#004F95"/>
<path d="M51.4033 41.7437C48.5583 44.6492 45.1431 46.102 41.1605 46.102C37.1779 46.102 33.9808 44.7149 31.1804 41.9381C28.38 39.1639 26.9797 35.867 26.9797 32.0499C26.9797 28.2328 28.38 24.8308 31.1804 22.0987C33.9808 19.3666 37.3066 18.0005 41.1605 18.0005C45.0144 18.0005 48.5583 19.4532 51.4033 22.3588L55.3413 18.1949V45.8393L51.4033 41.7411V41.7437ZM41.1605 21.5785C38.1841 21.5785 35.6779 22.5873 33.6419 24.6022C31.606 26.6198 30.5893 29.1024 30.5893 32.0499C30.5893 34.9975 31.6086 37.48 33.6419 39.4976C35.6779 41.5151 38.1814 42.5213 41.1605 42.5213C44.1396 42.5213 46.588 41.502 48.645 39.4634C50.7019 37.4248 51.7317 34.9528 51.7317 32.0473C51.7317 29.1418 50.7019 26.6697 48.645 24.6311C46.588 22.5926 44.0923 21.5733 41.1605 21.5733V21.5785Z" fill="#004F95"/>
<path d="M47.6624 58.1154C48.976 59.5603 50.6599 60.2827 52.7169 60.2827C54.5558 60.2827 56.153 59.647 57.5086 58.3781C58.8642 57.1093 59.5446 55.4674 59.5446 53.4551V17.9348H63.1567V53.4551C63.1567 56.3448 62.1374 58.8063 60.1041 60.8423C58.0682 62.8783 55.6066 63.8949 52.7169 63.8949C49.5644 63.8949 46.961 62.7338 44.9041 60.4141L47.6624 58.1154Z" fill="#004F95"/>
<path d="M81.4068 18.6572L79.7649 21.8754C79.2395 21.702 78.6037 21.6127 77.8603 21.6127C75.8453 21.6127 74.1929 22.2904 72.903 23.6486C71.6105 25.0068 70.9669 26.6251 70.9669 28.506V46.102H67.3547V18.7229L70.3758 21.1529C72.3881 19.0513 74.8838 18.0005 77.8603 18.0005C79.1738 18.0005 80.356 18.2185 81.4042 18.6572H81.4068Z" fill="#004F95"/>
<path d="M105.699 41.7437C102.854 44.6492 99.4388 46.102 95.4562 46.102C91.4736 46.102 88.2765 44.7149 85.476 41.9381C82.6756 39.1639 81.2754 35.867 81.2754 32.0499C81.2754 28.2328 82.6756 24.8308 85.476 22.0987C88.2765 19.3666 91.6023 18.0005 95.4562 18.0005C99.31 18.0005 102.854 19.4532 105.699 22.3588L109.637 17.9348V46.102L105.699 41.7437ZM95.4562 21.5785C92.4797 21.5785 89.9735 22.5873 87.9376 24.6022C85.9016 26.6198 84.8849 29.1024 84.8849 32.0499C84.8849 34.9975 85.9042 37.4826 87.9376 39.4976C89.9735 41.5151 92.4771 42.5213 95.4562 42.5213C98.4352 42.5213 100.884 41.502 102.941 39.4634C104.998 37.4248 106.027 34.9528 106.027 32.0473C106.027 29.1418 104.998 26.6697 102.941 24.6311C100.884 22.5926 98.3879 21.5733 95.4562 21.5733V21.5785Z" fill="#004F95"/>
<path d="M67.3547 57.5165H72.0913L73.3864 53.5076L74.784 59.471L76.4338 55.3124L77.7421 57.0226L79.56 49.5381L81.5119 60.8371L83.0067 53.639L84.462 57.5165H109.461" stroke="#F78117" stroke-miterlimit="10"/>
<path d="M61.3362 0V0.288975L61.1917 0.562187L61.0787 0.541171L61.3362 0Z" fill="#F78117"/>
<path d="M61.0787 0.541199L61.3362 0.756616V0.677805L61.1943 0.562215L61.0787 0.541199Z" fill="#F78117"/>
<path d="M61.3362 0.386169L61.2416 0.549046L61.3362 0.612095V0.386169Z" fill="#F78117"/>
<path d="M61.1365 0.669922C61.1365 0.669922 61.1996 1.10338 61.168 1.55524C61.168 1.55524 61.168 2.0859 61.0236 2.40902H61.1523L61.2968 2.21725V0.798647L61.1365 0.669922Z" fill="#F78117"/>
<path d="M61.3361 2.25403L61.2074 2.41428H61.3361V2.25403Z" fill="#F78117"/>
<path d="M61.3361 2.62442L61.2074 2.46155H61.3361V2.62442Z" fill="#F78117"/>
<path d="M61.0156 2.46155H61.1444L61.3046 2.67171V3.71727H61.0314C61.0314 3.71727 61.1286 3.44406 61.1128 2.9134C61.1128 2.9134 61.0971 2.62442 61.0156 2.46417V2.46155Z" fill="#F78117"/>
<path d="M60.5638 0.0183716C60.5638 0.0183716 60.6768 0.317854 60.5638 0.549034C60.5638 0.549034 60.443 0.764452 60.1619 0.869533L60.2433 0.998258C60.2433 0.998258 60.774 0.725046 60.8055 0.420309C60.8055 0.420309 60.8528 0.131334 60.5638 0.0183716V0.0183716Z" fill="#F78117"/>
<path d="M60.1146 1.09547C60.1146 1.09547 60.2433 1.01403 60.1618 0.935215C60.1618 0.935215 60.0174 0.822253 59.8413 0.935215C59.8413 0.935215 59.7442 1.01665 59.8571 1.09547C59.8571 1.09547 59.9202 1.20843 59.8098 1.14275C59.8098 1.14275 59.6496 1.01403 59.4394 1.15851C59.4394 1.15851 59.2292 1.31876 59.3764 1.4974C59.3764 1.4974 59.4237 1.53944 59.5209 1.52893C59.5209 1.52893 59.5734 1.59986 59.4736 1.59198C59.4736 1.59198 59.1688 1.49478 58.9744 1.84943C58.9744 1.84943 58.8142 2.15416 59.2004 2.25136C59.2004 2.25136 59.2976 2.3039 59.2004 2.31441C59.2004 2.31441 58.7511 2.21721 58.7012 2.66906C58.7012 2.66906 58.6539 2.98956 59.0217 3.05524C59.0217 3.05524 59.1189 3.10253 59.0217 3.11829C59.0217 3.11829 58.4911 3.10253 58.5068 3.71463C58.5068 3.71463 58.5226 4.13233 58.9088 4.21376C58.9088 4.21376 59.2792 4.26105 59.3764 3.87488C59.3764 3.87488 58.9429 4.0036 58.9429 3.64895C58.9429 3.64895 58.9429 3.45718 59.2319 3.43879C59.2319 3.43879 59.4237 3.42302 59.6181 3.74352L59.7153 3.91954L59.907 3.85649C59.907 3.85649 59.4394 3.2943 59.4736 2.585C59.4736 2.585 59.4263 1.76536 60.1172 1.09021L60.1146 1.09547Z" fill="#F78117"/>
<path d="M60.837 0.499146C60.837 0.499146 60.7556 0.756596 60.4666 0.916845C60.4666 0.916845 59.8702 1.15853 59.6312 1.99393C59.6312 1.99393 59.245 2.86348 59.9517 3.82761L60.1618 3.79608C60.1618 3.79608 59.7757 3.44143 59.7757 2.81357C59.7757 2.81357 59.7599 2.1069 60.3063 2.1069C60.3063 2.1069 60.548 2.09113 60.6452 2.38011C60.6452 2.38011 60.7083 2.57188 60.6295 2.75052C60.6295 2.75052 60.9184 2.66908 60.9342 2.33282C60.9342 2.33282 60.95 1.89936 60.5638 1.80216C60.5638 1.80216 60.1146 1.7864 60.1618 1.49742C60.1618 1.49742 60.1461 1.33717 60.4823 1.0482C60.4823 1.0482 60.8028 0.806509 60.837 0.501773V0.499146Z" fill="#F78117"/>
<path d="M59.8413 2.89764C59.8413 2.89764 59.8413 3.44407 60.2432 3.79872L60.4849 3.7672C60.4849 3.7672 59.97 3.46246 59.8413 2.89764Z" fill="#F78117"/>
<path d="M61.3388 3.74878C61.3388 3.74878 60.3563 3.7803 59.6496 3.9747C59.6496 3.9747 59.4579 4.05614 59.5209 4.23216C59.5209 4.23216 59.5524 4.3924 59.7626 4.36088C59.7626 4.36088 60.5507 4.15072 61.3414 4.15072V3.74878H61.3388Z" fill="#F78117"/>
<path d="M61.1286 4.21643L60.9368 4.32939L60.8081 4.23219C60.8081 4.23219 60.9841 4.21643 61.1286 4.21643Z" fill="#F78117"/>
<path d="M60.5822 4.48963C60.5822 4.48963 60.6138 4.3609 60.6952 4.32938C60.6952 4.32938 60.7425 4.34514 60.8239 4.42658L60.9211 4.34514C60.9211 4.34514 60.8082 4.24794 60.6794 4.23218C60.6794 4.23218 60.5665 4.2637 60.5034 4.40819L60.5849 4.48963H60.5822Z" fill="#F78117"/>
<path d="M60.5638 4.24792L60.4666 4.39241L60.3221 4.29521C60.3221 4.29521 60.4509 4.26369 60.5638 4.24792V4.24792Z" fill="#F78117"/>
<path d="M60.7267 4.39243C60.7267 4.39243 60.6951 4.37667 60.6636 4.40819C60.6636 4.40819 60.6321 4.45548 60.6321 4.53692C60.6321 4.53692 60.6321 4.56844 60.6636 4.59997L60.745 4.71293C60.745 4.71293 60.7135 4.64988 60.7608 4.55268C60.7608 4.55268 60.8081 4.50539 60.7923 4.45548C60.7923 4.45548 60.7766 4.42395 60.7293 4.39243H60.7267Z" fill="#F78117"/>
<path d="M59.7756 4.40817C59.7756 4.40817 60.0016 4.32674 60.2433 4.31097C60.2433 4.31097 60.7739 4.50275 60.8711 5.29349L60.7424 5.30925C60.7424 5.30925 60.6294 4.84164 60.372 4.6341C60.372 4.6341 60.1618 4.44233 59.794 4.45809L59.7783 4.4108L59.7756 4.40817Z" fill="#F78117"/>
<path d="M59.5524 4.71553C59.5524 4.71553 59.5682 4.50537 59.9071 4.50537C59.9071 4.50537 60.2617 4.5369 60.4535 4.79435C60.4535 4.79435 60.6137 5.02027 60.6952 5.32501L60.598 5.34077C60.598 5.34077 60.5507 5.18052 60.4692 5.08332C60.4692 5.08332 60.4062 5.03603 60.422 5.11484C60.422 5.11484 60.5034 5.24357 60.5507 5.35653L60.4535 5.38806C60.4535 5.38806 60.309 5.08332 60.0831 4.92044L60.1461 4.85739C60.1461 4.85739 60.1619 4.81011 60.1146 4.82587C60.1146 4.82587 60.0332 4.97036 59.8099 4.9546C59.8099 4.9546 59.5367 4.93883 59.5524 4.71291V4.71553Z" fill="#F78117"/>
<path d="M61.3388 4.21643C61.3388 4.21643 61.1759 4.21643 60.9841 4.36092C60.9841 4.36092 60.8081 4.47388 60.7924 4.73133C60.7924 4.73133 60.7924 4.82853 60.8554 5.00454C60.8554 5.00454 60.9185 5.14903 60.9185 5.27776H61.1102C61.1102 5.27776 60.9973 5.08598 60.9973 4.87582C60.9973 4.87582 60.9815 4.52117 61.3362 4.39244V4.21643H61.3388Z" fill="#F78117"/>
<path d="M61.3441 5.32501V5.71119C61.3441 5.71119 60.8686 5.69542 60.5008 5.83991C60.5008 5.83991 60.309 5.93711 60.2276 5.77686C60.2276 5.77686 60.1304 5.63238 60.309 5.50365C60.309 5.50365 60.6715 5.32764 61.3467 5.32764L61.3441 5.32501Z" fill="#F78117"/>
<path d="M61.2231 5.26196H61.1601C61.1601 5.26196 61.0629 5.10171 61.0629 4.86002C61.0629 4.86002 61.0786 4.55528 61.3387 4.44232V4.55528C61.3387 4.55528 61.1285 4.66825 61.1285 4.9257C61.1285 4.9257 61.1285 5.10171 61.2257 5.26459L61.2231 5.26196Z" fill="#F78117"/>
<path d="M61.3361 4.6026V4.81276C61.3361 4.81276 61.2889 4.81276 61.2889 4.87581V5.26199C61.2889 5.26199 61.2074 5.13326 61.1917 4.9231C61.1917 4.9231 61.1995 4.69717 61.3361 4.6026Z" fill="#F78117"/>
<path d="M61.3362 0V0.291602L61.4912 0.546425L61.5989 0.551679L61.3362 0Z" fill="#F78117"/>
<path d="M61.5989 0.551704L61.3362 0.756614V0.677802L61.4964 0.543823L61.5989 0.551704Z" fill="#F78117"/>
<path d="M61.3362 0.386169L61.4334 0.549046L61.3362 0.612095V0.386169Z" fill="#F78117"/>
<path d="M61.5384 0.669922C61.5384 0.669922 61.4754 1.10338 61.5069 1.55524C61.5069 1.55524 61.5069 2.0859 61.6514 2.40902H61.5227L61.3782 2.21725V0.798647L61.5384 0.669922Z" fill="#F78117"/>
<path d="M61.3362 2.25403L61.4649 2.41428H61.3362V2.25403Z" fill="#F78117"/>
<path d="M61.3362 2.62442L61.4649 2.46155H61.3362V2.62442Z" fill="#F78117"/>
<path d="M61.6592 2.46155H61.5305L61.3702 2.67171V3.71727H61.6434C61.6434 3.71727 61.5462 3.44406 61.562 2.9134C61.562 2.9134 61.5778 2.62442 61.6592 2.46417V2.46155Z" fill="#F78117"/>
<path d="M62.1085 0.0183716C62.1085 0.0183716 61.9955 0.291584 62.1085 0.549034C62.1085 0.549034 62.2214 0.759197 62.5104 0.869533L62.429 0.998258C62.429 0.998258 61.8983 0.725046 61.8668 0.420309C61.8668 0.420309 61.8195 0.131334 62.1085 0.0183716V0.0183716Z" fill="#F78117"/>
<path d="M62.5604 1.09547C62.5604 1.09547 62.4317 1.01403 62.5131 0.935215C62.5131 0.935215 62.6576 0.822253 62.8336 0.935215C62.8336 0.935215 62.9308 1.01665 62.8178 1.09547C62.8178 1.09547 62.7548 1.20843 62.8651 1.14275C62.8651 1.14275 63.0254 1.01403 63.2355 1.15851C63.2355 1.15851 63.4457 1.31876 63.2986 1.4974C63.2986 1.4974 63.2355 1.52893 63.1541 1.52893C63.1541 1.52893 63.1068 1.59198 63.2014 1.59198C63.2014 1.59198 63.5061 1.49478 63.7005 1.84943C63.7005 1.84943 63.8608 2.15416 63.4746 2.25136C63.4746 2.25136 63.3774 2.28289 63.4746 2.31441C63.4746 2.31441 63.9238 2.21721 63.9737 2.66906C63.9737 2.66906 64.021 2.98956 63.6532 3.05524C63.6532 3.05524 63.556 3.10253 63.6532 3.11829C63.6532 3.11829 64.1839 3.10253 64.1681 3.71463C64.1681 3.71463 64.1524 4.13233 63.7662 4.21376C63.7662 4.21376 63.3958 4.26105 63.2986 3.87488C63.2986 3.87488 63.732 4.0036 63.732 3.64895C63.732 3.64895 63.732 3.45718 63.4431 3.43879C63.4431 3.43879 63.2513 3.42302 63.0569 3.74352L62.9597 3.91954L62.7679 3.85649C62.7679 3.85649 63.2355 3.2943 63.2014 2.585C63.2014 2.585 63.2487 1.76536 62.5577 1.09021L62.5604 1.09547Z" fill="#F78117"/>
<path d="M61.8353 0.499146C61.8353 0.499146 61.9168 0.756596 62.2057 0.916845C62.2057 0.916845 62.8021 1.15853 63.0411 1.99393C63.0411 1.99393 63.4273 2.86348 62.7206 3.82761L62.5105 3.79608C62.5105 3.79608 62.8967 3.44143 62.8967 2.81357C62.8967 2.81357 62.9124 2.1069 62.366 2.1069C62.366 2.1069 62.1243 2.09113 62.0271 2.38011C62.0271 2.38011 61.9641 2.57188 62.0429 2.75052C62.0429 2.75052 61.7539 2.66908 61.7381 2.33282C61.7381 2.33282 61.7224 1.89936 62.1085 1.80216C62.1085 1.80216 62.5578 1.7864 62.5105 1.49742C62.5105 1.49742 62.5262 1.33717 62.19 1.0482C62.19 1.0482 61.8695 0.806509 61.8353 0.501773V0.499146Z" fill="#F78117"/>
<path d="M62.8336 2.89764C62.8336 2.89764 62.8336 3.44407 62.4316 3.79872L62.1899 3.7672C62.1899 3.7672 62.7048 3.46246 62.8336 2.89764Z" fill="#F78117"/>
<path d="M61.3387 3.74878C61.3387 3.74878 62.3186 3.7803 63.0253 3.9747C63.0253 3.9747 63.2171 4.05614 63.154 4.23216C63.154 4.23216 63.1225 4.3924 62.9123 4.36088C62.9123 4.36088 62.1242 4.15072 61.3387 4.15072V3.74878V3.74878Z" fill="#F78117"/>
<path d="M61.5463 4.21643L61.738 4.32939L61.8668 4.23219C61.8668 4.23219 61.6908 4.21643 61.5463 4.21643Z" fill="#F78117"/>
<path d="M62.0927 4.48963C62.0927 4.48963 62.0611 4.3609 61.9797 4.32938C61.9797 4.32938 61.9324 4.34514 61.851 4.42658L61.7538 4.34514C61.7538 4.34514 61.8667 4.24794 61.9955 4.23218C61.9955 4.23218 62.1084 4.2637 62.1715 4.40819L62.09 4.48963H62.0927Z" fill="#F78117"/>
<path d="M62.1085 4.24792L62.2057 4.39241L62.3502 4.29521C62.3502 4.29521 62.2215 4.26369 62.1085 4.24792V4.24792Z" fill="#F78117"/>
<path d="M61.9483 4.39243C61.9483 4.39243 61.9798 4.37667 62.0113 4.40819C62.0113 4.40819 62.0429 4.45548 62.0429 4.53692C62.0429 4.53692 62.0429 4.56844 62.0113 4.59997L61.9299 4.71293C61.9299 4.71293 61.9614 4.64988 61.9141 4.55268C61.9141 4.55268 61.8668 4.50539 61.8826 4.45548C61.8826 4.45548 61.8984 4.42395 61.9457 4.39243H61.9483Z" fill="#F78117"/>
<path d="M62.8966 4.40817C62.8966 4.40817 62.6707 4.32674 62.429 4.31097C62.429 4.31097 61.8983 4.50275 61.8011 5.29349L61.9299 5.30925C61.9299 5.30925 62.0428 4.84164 62.3003 4.6341C62.3003 4.6341 62.5105 4.44233 62.8782 4.45809L62.894 4.4108L62.8966 4.40817Z" fill="#F78117"/>
<path d="M63.1225 4.71553C63.1225 4.71553 63.1067 4.50537 62.7678 4.50537C62.7678 4.50537 62.4132 4.5369 62.2214 4.79435C62.2214 4.79435 62.0612 5.02027 61.9797 5.32501L62.0769 5.34077C62.0769 5.34077 62.1242 5.18052 62.2057 5.08332C62.2057 5.08332 62.2687 5.03603 62.253 5.11484C62.253 5.11484 62.1715 5.24357 62.1242 5.35653L62.2214 5.38806C62.2214 5.38806 62.3659 5.08332 62.5918 4.92044L62.5288 4.85739C62.5288 4.85739 62.513 4.81011 62.5603 4.82587C62.5603 4.82587 62.6418 4.97036 62.8651 4.9546C62.8651 4.9546 63.1383 4.93883 63.1225 4.71291V4.71553Z" fill="#F78117"/>
<path d="M61.3387 4.21643C61.3387 4.21643 61.499 4.21643 61.6908 4.36092C61.6908 4.36092 61.8668 4.47388 61.8825 4.73133C61.8825 4.73133 61.8825 4.82853 61.8195 5.00454C61.8195 5.00454 61.7564 5.14903 61.7564 5.27776H61.5647C61.5647 5.27776 61.6776 5.08598 61.6776 4.87582C61.6776 4.87582 61.6934 4.52117 61.3414 4.39244V4.21643H61.3387Z" fill="#F78117"/>
<path d="M61.3283 5.32501V5.71119C61.3283 5.71119 61.8012 5.69542 62.1716 5.83991C62.1716 5.83991 62.3634 5.93711 62.4448 5.77686C62.4448 5.77686 62.542 5.63238 62.3634 5.50365C62.3634 5.50365 62.0008 5.32764 61.3257 5.32764L61.3283 5.32501Z" fill="#F78117"/>
<path d="M61.4491 5.26196H61.5121C61.5121 5.26196 61.6093 5.10171 61.6093 4.86002C61.6093 4.86002 61.5936 4.55529 61.3387 4.4397V4.55266C61.3387 4.55266 61.5463 4.66562 61.5463 4.92307C61.5463 4.92307 61.5463 5.09909 61.4491 5.26196V5.26196Z" fill="#F78117"/>
<path d="M61.3362 4.59998V4.81014C61.3362 4.81014 61.3861 4.81014 61.3861 4.87319V5.25937C61.3861 5.25937 61.4675 5.13064 61.4833 4.92048C61.4833 4.92048 61.4675 4.69455 61.3388 4.59735L61.3362 4.59998Z" fill="#F78117"/>
<path d="M69.0702 7.73925H68.7812L68.571 7.61052V7.49756L69.0702 7.73925Z" fill="#F78117"/>
<path d="M68.5159 7.52124L68.3373 7.74717H68.4187L68.5159 7.61844V7.52124Z" fill="#F78117"/>
<path d="M68.7076 7.74716L68.5474 7.64996L68.4817 7.74716H68.7076Z" fill="#F78117"/>
<path d="M68.4266 7.54485C68.4266 7.54485 67.9931 7.6079 67.5413 7.57637C67.5413 7.57637 67.0106 7.57637 66.6875 7.43188V7.56061L66.8793 7.7051H68.2952L68.424 7.54485H68.4266Z" fill="#F78117"/>
<path d="M66.8425 7.74713L66.6823 7.61841V7.74713H66.8425Z" fill="#F78117"/>
<path d="M66.472 7.74713L66.6323 7.61841V7.74713H66.472Z" fill="#F78117"/>
<path d="M66.6323 7.42401V7.55274L66.4221 7.71299H65.3766V7.43977C65.3766 7.43977 65.6498 7.53697 66.1805 7.52121C66.1805 7.52121 66.4694 7.50545 66.6297 7.42401H66.6323Z" fill="#F78117"/>
<path d="M69.078 6.97481C69.078 6.97481 68.8048 7.08778 68.5474 6.97481C68.5474 6.97481 68.3372 6.86185 68.2269 6.57288L68.0981 6.65431C68.0981 6.65431 68.3714 7.18498 68.6761 7.2165C68.6761 7.2165 68.9651 7.26379 69.078 6.97481V6.97481Z" fill="#F78117"/>
<path d="M68.001 6.52557C68.001 6.52557 68.0824 6.6543 68.1612 6.57286C68.1612 6.57286 68.2742 6.42837 68.1612 6.25236C68.1612 6.25236 68.0798 6.15516 68.001 6.26812C68.001 6.26812 67.888 6.33117 67.9537 6.22084C67.9537 6.22084 68.0824 6.06059 67.9379 5.85043C67.9379 5.85043 67.7777 5.64026 67.5991 5.78738C67.5991 5.78738 67.5675 5.85042 67.5675 5.93186C67.5675 5.93186 67.5045 5.97915 67.5045 5.88458C67.5045 5.88458 67.6017 5.57984 67.247 5.38544C67.247 5.38544 66.9423 5.22519 66.8451 5.61136C66.8451 5.61136 66.8136 5.70856 66.782 5.61136C66.782 5.61136 66.8792 5.16214 66.4274 5.11223C66.4274 5.11223 66.1069 5.06494 66.0412 5.43273C66.0412 5.43273 65.9939 5.52993 65.9782 5.43273C65.9782 5.43273 65.9939 4.90206 65.3818 4.91782C65.3818 4.91782 64.9641 4.93359 64.8827 5.31976C64.8827 5.31976 64.8354 5.69018 65.2216 5.78738C65.2216 5.78738 65.0929 5.35391 65.4475 5.35391C65.4475 5.35391 65.6393 5.35391 65.6577 5.64289C65.6577 5.64289 65.6734 5.83466 65.3529 6.02906L65.1769 6.12626L65.24 6.31804C65.24 6.31804 65.8022 5.85042 66.5115 5.88458C66.5115 5.88458 67.3311 5.83729 68.0062 6.5282L68.001 6.52557Z" fill="#F78117"/>
<path d="M68.5947 7.24801C68.5947 7.24801 68.3372 7.16657 68.177 6.8776C68.177 6.8776 67.9353 6.28126 67.0999 6.0422C67.0999 6.0422 66.2304 5.65602 65.2662 6.3627L65.2978 6.57286C65.2978 6.57286 65.6524 6.18669 66.2803 6.18669C66.2803 6.18669 66.9869 6.17092 66.9869 6.71735C66.9869 6.71735 67.0027 6.95904 66.7137 7.05624C66.7137 7.05624 66.522 7.11929 66.3433 7.04047C66.3433 7.04047 66.4248 7.32945 66.761 7.34521C66.761 7.34521 67.1945 7.36097 67.2917 6.9748C67.2917 6.9748 67.3074 6.52557 67.5964 6.57286C67.5964 6.57286 67.7567 6.5571 68.0456 6.89336C68.0456 6.89336 68.2873 7.21386 68.5921 7.24801H68.5947Z" fill="#F78117"/>
<path d="M66.1988 6.24976C66.1988 6.24976 65.6524 6.24976 65.2977 6.65169L65.3293 6.89338C65.3293 6.89338 65.634 6.37848 66.1988 6.24976V6.24976Z" fill="#F78117"/>
<path d="M65.3477 7.74714C65.3477 7.74714 65.3161 6.76463 65.1217 6.05795C65.1217 6.05795 65.0403 5.86618 64.8643 5.92923C64.8643 5.92923 64.704 5.96075 64.7356 6.17092C64.7356 6.17092 64.9457 6.95903 64.9457 7.74977H65.3477V7.74714Z" fill="#F78117"/>
<path d="M64.8801 7.53699L64.7671 7.34522L64.8643 7.21649C64.8643 7.21649 64.8801 7.3925 64.8801 7.53699Z" fill="#F78117"/>
<path d="M64.6068 6.99055C64.6068 6.99055 64.7355 7.02208 64.7671 7.10352C64.7671 7.10352 64.7513 7.1508 64.6699 7.23224L64.7513 7.32944C64.7513 7.32944 64.8485 7.21648 64.8643 7.08776C64.8643 7.08776 64.8327 6.97479 64.6883 6.91174L64.6068 6.99318V6.99055Z" fill="#F78117"/>
<path d="M64.8486 6.97478L64.7041 6.87758L64.8013 6.73309C64.8013 6.73309 64.8328 6.86182 64.8486 6.97478Z" fill="#F78117"/>
<path d="M64.704 7.13504C64.704 7.13504 64.7198 7.10352 64.6883 7.07199C64.6883 7.07199 64.641 7.04047 64.5596 7.04047C64.5596 7.04047 64.528 7.04047 64.4965 7.07199L64.3835 7.15343C64.3835 7.15343 64.4466 7.12191 64.5438 7.16919C64.5438 7.16919 64.5911 7.21648 64.641 7.20072C64.641 7.20072 64.6725 7.18495 64.704 7.13767V7.13504Z" fill="#F78117"/>
<path d="M64.6856 6.18671C64.6856 6.18671 64.7671 6.41263 64.7828 6.65432C64.7828 6.65432 64.591 7.18498 63.8003 7.28218L63.7845 7.15346C63.7845 7.15346 64.2522 7.0405 64.4597 6.78305C64.4597 6.78305 64.6515 6.57288 64.6357 6.2051L64.683 6.18933L64.6856 6.18671Z" fill="#F78117"/>
<path d="M64.3809 5.96074C64.3809 5.96074 64.5911 5.9765 64.5911 6.31539C64.5911 6.31539 64.5595 6.67004 64.3021 6.86182C64.3021 6.86182 64.0762 7.02206 63.7714 7.1035L63.7557 7.0063C63.7557 7.0063 63.9159 6.95902 64.0131 6.87758C64.0131 6.87758 64.0604 6.81453 63.9816 6.83029C63.9816 6.83029 63.8529 6.91173 63.7399 6.95902L63.7084 6.86182C63.7084 6.86182 64.0131 6.71733 64.176 6.4914L64.239 6.55445C64.239 6.55445 64.2863 6.57021 64.2706 6.52293C64.2706 6.52293 64.1261 6.44149 64.1418 6.21819C64.1418 6.21819 64.1576 5.94498 64.3835 5.96074H64.3809Z" fill="#F78117"/>
<path d="M64.8801 7.74717C64.8801 7.74717 64.8801 7.58429 64.7356 7.39252C64.7356 7.39252 64.6226 7.21651 64.3652 7.20074C64.3652 7.20074 64.268 7.20074 64.0919 7.26379C64.0919 7.26379 63.9475 7.32684 63.8187 7.32684V7.51862C63.8187 7.51862 64.0105 7.40565 64.2207 7.40565C64.2207 7.40565 64.5753 7.38989 64.704 7.74454H64.8801V7.74717Z" fill="#F78117"/>
<path d="M63.7688 7.75501H63.3827C63.3827 7.75501 63.3984 7.27952 63.2539 6.91173C63.2539 6.91173 63.1567 6.71996 63.317 6.63852C63.317 6.63852 63.4615 6.54132 63.5902 6.71996C63.5902 6.71996 63.7662 7.08249 63.7662 7.75764L63.7688 7.75501Z" fill="#F78117"/>
<path d="M63.8345 7.63419V7.57114C63.8345 7.57114 63.9948 7.47394 64.2365 7.47394C64.2365 7.47394 64.5412 7.4897 64.6542 7.74978H64.5412C64.5412 7.74978 64.4283 7.53961 64.1708 7.53961C64.1708 7.53961 63.9948 7.53961 63.8319 7.63681L63.8345 7.63419Z" fill="#F78117"/>
<path d="M64.4939 7.74715H64.2837C64.2837 7.74715 64.2837 7.69986 64.2206 7.69986H63.8345C63.8345 7.69986 63.9632 7.61842 64.1734 7.60266C64.1734 7.60266 64.3993 7.61054 64.4939 7.74715V7.74715Z" fill="#F78117"/>
<path d="M69.0702 7.755H68.7812L68.571 7.88373V7.99669L69.0702 7.755Z" fill="#F78117"/>
<path d="M68.5159 7.97306L68.3373 7.74713H68.4187L68.5159 7.87586V7.97306Z" fill="#F78117"/>
<path d="M68.7076 7.74713L68.5474 7.84433L68.4817 7.74713H68.7076Z" fill="#F78117"/>
<path d="M68.4266 7.94681C68.4266 7.94681 67.9931 7.88376 67.5413 7.91529C67.5413 7.91529 67.0106 7.91529 66.6875 8.05977V7.93105L66.8793 7.78656H68.2952L68.424 7.94681H68.4266Z" fill="#F78117"/>
<path d="M66.8425 7.74713L66.6823 7.87586V7.74713H66.8425Z" fill="#F78117"/>
<path d="M66.472 7.74713L66.6323 7.87586V7.74713H66.472Z" fill="#F78117"/>
<path d="M66.6323 8.06766V7.93894L66.4221 7.77869H65.3766V8.0519C65.3766 8.0519 65.6498 7.9547 66.1805 7.97046C66.1805 7.97046 66.4694 7.98622 66.6297 8.06766H66.6323Z" fill="#F78117"/>
<path d="M69.078 8.51953C69.078 8.51953 68.8048 8.40656 68.5474 8.51953C68.5474 8.51953 68.3372 8.63249 68.2269 8.92146L68.0981 8.84003C68.0981 8.84003 68.3714 8.30936 68.6761 8.27784C68.6761 8.27784 68.9651 8.23055 69.078 8.51953V8.51953Z" fill="#F78117"/>
<path d="M68.001 8.9687C68.001 8.9687 68.0824 8.83998 68.1612 8.92141C68.1612 8.92141 68.2742 9.0659 68.1612 9.24191C68.1612 9.24191 68.0798 9.33911 68.001 9.22615C68.001 9.22615 67.888 9.1631 67.9537 9.27344C67.9537 9.27344 68.0824 9.43369 67.9379 9.64385C67.9379 9.64385 67.7777 9.85401 67.5991 9.7069C67.5991 9.7069 67.5675 9.64385 67.5675 9.56241C67.5675 9.56241 67.5045 9.51513 67.5045 9.6097C67.5045 9.6097 67.6017 9.91444 67.247 10.1088C67.247 10.1088 66.9423 10.2691 66.8451 9.88291C66.8451 9.88291 66.8136 9.78571 66.782 9.88291C66.782 9.88291 66.8792 10.3321 66.4274 10.382C66.4274 10.382 66.1069 10.4293 66.0412 10.0615C66.0412 10.0615 65.9939 9.96435 65.9782 10.0615C65.9782 10.0615 65.9939 10.5922 65.3818 10.5764C65.3818 10.5764 64.9641 10.5607 64.8827 10.1745C64.8827 10.1745 64.8354 9.8041 65.2216 9.7069C65.2216 9.7069 65.0929 10.1404 65.4475 10.1404C65.4475 10.1404 65.6393 10.1404 65.6577 9.85139C65.6577 9.85139 65.6734 9.65961 65.3529 9.46521L65.1769 9.36801L65.24 9.17624C65.24 9.17624 65.8022 9.64385 66.5115 9.6097C66.5115 9.6097 67.3311 9.65699 68.0062 8.96607L68.001 8.9687Z" fill="#F78117"/>
<path d="M68.5947 8.24628C68.5947 8.24628 68.3372 8.32772 68.177 8.61669C68.177 8.61669 67.9353 9.21303 67.0999 9.45209C67.0999 9.45209 66.2304 9.83826 65.2662 9.13159L65.2978 8.92143C65.2978 8.92143 65.6524 9.3076 66.2803 9.3076C66.2803 9.3076 66.9869 9.32336 66.9869 8.77694C66.9869 8.77694 67.0027 8.53525 66.7137 8.43805C66.7137 8.43805 66.522 8.375 66.3433 8.45381C66.3433 8.45381 66.4248 8.16484 66.761 8.14908C66.761 8.14908 67.1945 8.13331 67.2917 8.51949C67.2917 8.51949 67.3074 8.96871 67.5964 8.92143C67.5964 8.92143 67.7567 8.93719 68.0456 8.60093C68.0456 8.60093 68.2873 8.28043 68.5921 8.24628H68.5947Z" fill="#F78117"/>
<path d="M66.1988 9.24195C66.1988 9.24195 65.6524 9.24195 65.2977 8.84002L65.3293 8.59833C65.3293 8.59833 65.634 9.11323 66.1988 9.24195Z" fill="#F78117"/>
<path d="M65.3477 7.74713C65.3477 7.74713 65.3161 8.72702 65.1217 9.43369C65.1217 9.43369 65.0403 9.62547 64.8643 9.56242C64.8643 9.56242 64.704 9.53089 64.7356 9.32073C64.7356 9.32073 64.9457 8.53262 64.9457 7.74713H65.3477V7.74713Z" fill="#F78117"/>
<path d="M64.8801 7.95471L64.7671 8.14649L64.8643 8.27521C64.8643 8.27521 64.8801 8.0992 64.8801 7.95471Z" fill="#F78117"/>
<path d="M64.6068 8.50374C64.6068 8.50374 64.7355 8.47222 64.7671 8.39078C64.7671 8.39078 64.7513 8.3435 64.6699 8.26206L64.7513 8.16486C64.7513 8.16486 64.8485 8.27782 64.8643 8.40654C64.8643 8.40654 64.8327 8.51951 64.6883 8.58256L64.6068 8.50112V8.50374Z" fill="#F78117"/>
<path d="M64.8486 8.51947L64.7041 8.61667L64.8013 8.76116C64.8013 8.76116 64.8328 8.63243 64.8486 8.51947V8.51947Z" fill="#F78117"/>
<path d="M64.704 8.35661C64.704 8.35661 64.7198 8.38814 64.6883 8.41966C64.6883 8.41966 64.641 8.45119 64.5596 8.45119C64.5596 8.45119 64.528 8.45119 64.4965 8.41966L64.3835 8.33822C64.3835 8.33822 64.4466 8.36975 64.5438 8.32246C64.5438 8.32246 64.5911 8.27517 64.641 8.29094C64.641 8.29094 64.6725 8.3067 64.704 8.35399V8.35661Z" fill="#F78117"/>
<path d="M64.6856 9.30763C64.6856 9.30763 64.7671 9.08171 64.7828 8.84002C64.7828 8.84002 64.591 8.30936 63.8003 8.21216L63.7845 8.34088C63.7845 8.34088 64.2522 8.45385 64.4597 8.7113C64.4597 8.7113 64.6515 8.92146 64.6357 9.28925L64.683 9.30501L64.6856 9.30763Z" fill="#F78117"/>
<path d="M64.3809 9.53089C64.3809 9.53089 64.5911 9.51512 64.5911 9.17624C64.5911 9.17624 64.5595 8.82158 64.3021 8.62981C64.3021 8.62981 64.0762 8.46956 63.7714 8.38812L63.7557 8.48532C63.7557 8.48532 63.9159 8.53261 64.0131 8.61405C64.0131 8.61405 64.0604 8.6771 63.9816 8.66134C63.9816 8.66134 63.8529 8.5799 63.7399 8.53261L63.7084 8.62981C63.7084 8.62981 64.0131 8.7743 64.176 9.00022L64.239 8.93717C64.239 8.93717 64.2863 8.92141 64.2706 8.9687C64.2706 8.9687 64.1261 9.05014 64.1418 9.27344C64.1418 9.27344 64.1576 9.54665 64.3835 9.53089H64.3809Z" fill="#F78117"/>
<path d="M64.8801 7.74713C64.8801 7.74713 64.8801 7.90738 64.7356 8.09916C64.7356 8.09916 64.6226 8.27517 64.3652 8.29093C64.3652 8.29093 64.268 8.29093 64.0919 8.22788C64.0919 8.22788 63.9475 8.16483 63.8187 8.16483V7.97306C63.8187 7.97306 64.0105 8.08602 64.2207 8.08602C64.2207 8.08602 64.5753 8.10178 64.704 7.74976H64.8801V7.74713Z" fill="#F78117"/>
<path d="M63.7688 7.73926H63.3827C63.3827 7.73926 63.3984 8.21213 63.2539 8.58254C63.2539 8.58254 63.1567 8.77431 63.317 8.85575C63.317 8.85575 63.4615 8.95295 63.5902 8.77432C63.5902 8.77432 63.7662 8.41178 63.7662 7.73663L63.7688 7.73926Z" fill="#F78117"/>
<path d="M63.8345 7.86009V7.92314C63.8345 7.92314 63.9947 8.02034 64.2364 8.02034C64.2364 8.02034 64.5411 8.00458 64.6567 7.74976H64.5438C64.5438 7.74976 64.4308 7.95729 64.1734 7.95729C64.1734 7.95729 63.9973 7.95729 63.8345 7.86009V7.86009Z" fill="#F78117"/>
<path d="M64.4939 7.74713H64.2837C64.2837 7.74713 64.2837 7.79705 64.2206 7.79705H63.8345C63.8345 7.79705 63.9632 7.87848 64.1734 7.89425C64.1734 7.89425 64.3993 7.87848 64.4965 7.74976L64.4939 7.74713Z" fill="#F78117"/>
<path d="M61.344 15.468V15.179L61.4727 14.9689H61.5857L61.344 15.468Z" fill="#F78117"/>
<path d="M61.5621 14.9137L61.3362 14.7351V14.8165L61.4649 14.9137H61.5621Z" fill="#F78117"/>
<path d="M61.3362 15.1055L61.4334 14.9453L61.3362 14.8822V15.1055Z" fill="#F78117"/>
<path d="M61.5384 14.8244C61.5384 14.8244 61.4754 14.391 61.5069 13.9391C61.5069 13.9391 61.5069 13.4085 61.6514 13.0853H61.5227L61.3782 13.2771V14.6931L61.5384 14.8218V14.8244Z" fill="#F78117"/>
<path d="M61.3362 13.2403L61.4649 13.0801H61.3362V13.2403Z" fill="#F78117"/>
<path d="M61.3362 12.8699L61.4649 13.0301H61.3362V12.8699Z" fill="#F78117"/>
<path d="M61.6592 13.0301H61.5305L61.3702 12.82V11.7744H61.6434C61.6434 11.7744 61.5462 12.0476 61.562 12.5783C61.562 12.5783 61.5778 12.8673 61.6592 13.0275V13.0301Z" fill="#F78117"/>
<path d="M62.1085 15.4759C62.1085 15.4759 61.9955 15.2027 62.1085 14.9453C62.1085 14.9453 62.2214 14.7351 62.5104 14.6248L62.429 14.496C62.429 14.496 61.8983 14.7692 61.8668 15.074C61.8668 15.074 61.8195 15.363 62.1085 15.4759Z" fill="#F78117"/>
<path d="M62.5604 14.3988C62.5604 14.3988 62.4317 14.4803 62.5131 14.5591C62.5131 14.5591 62.6576 14.672 62.8336 14.5591C62.8336 14.5591 62.9308 14.4776 62.8178 14.3988C62.8178 14.3988 62.7548 14.2859 62.8651 14.3515C62.8651 14.3515 63.0254 14.4803 63.2355 14.3358C63.2355 14.3358 63.4457 14.1755 63.2986 13.9969C63.2986 13.9969 63.2355 13.9654 63.1541 13.9654C63.1541 13.9654 63.1068 13.9023 63.2014 13.9023C63.2014 13.9023 63.5061 13.9995 63.7005 13.6449C63.7005 13.6449 63.8608 13.3401 63.4746 13.2429C63.4746 13.2429 63.3774 13.2114 63.4746 13.1799C63.4746 13.1799 63.9238 13.2771 63.9737 12.8252C63.9737 12.8252 64.021 12.5047 63.6532 12.439C63.6532 12.439 63.556 12.3918 63.6532 12.376C63.6532 12.376 64.1839 12.3918 64.1681 11.7797C64.1681 11.7797 64.1524 11.362 63.7662 11.2805C63.7662 11.2805 63.3958 11.2332 63.2986 11.6194C63.2986 11.6194 63.732 11.4907 63.732 11.8453C63.732 11.8453 63.732 12.0371 63.4431 12.0555C63.4431 12.0555 63.2513 12.0713 63.0569 11.7508L62.9597 11.5747L62.7679 11.6378C62.7679 11.6378 63.2355 12.2 63.2014 12.9093C63.2014 12.9093 63.2487 13.7289 62.5577 14.4041L62.5604 14.3988Z" fill="#F78117"/>
<path d="M61.8353 14.9925C61.8353 14.9925 61.9168 14.7351 62.2057 14.5748C62.2057 14.5748 62.8021 14.3331 63.0411 13.4977C63.0411 13.4977 63.4273 12.6282 62.7206 11.6641L62.5105 11.6956C62.5105 11.6956 62.8967 12.0502 62.8967 12.6781C62.8967 12.6781 62.9124 13.3848 62.366 13.3848C62.366 13.3848 62.1243 13.4005 62.0271 13.1116C62.0271 13.1116 61.9641 12.9198 62.0429 12.7411C62.0429 12.7411 61.7539 12.8226 61.7381 13.1588C61.7381 13.1588 61.7224 13.5923 62.1085 13.6895C62.1085 13.6895 62.5578 13.7053 62.5105 13.9942C62.5105 13.9942 62.5262 14.1545 62.19 14.4435C62.19 14.4435 61.8695 14.6852 61.8353 14.9899V14.9925Z" fill="#F78117"/>
<path d="M62.8336 12.5967C62.8336 12.5967 62.8336 12.0503 62.4316 11.6956L62.1899 11.7271C62.1899 11.7271 62.7048 12.0319 62.8336 12.5967Z" fill="#F78117"/>
<path d="M61.3361 11.7455C61.3361 11.7455 62.3186 11.714 63.0253 11.5196C63.0253 11.5196 63.2171 11.4382 63.154 11.2622C63.154 11.2622 63.1225 11.1019 62.9123 11.1334C62.9123 11.1334 62.1242 11.3436 61.3335 11.3436V11.7455H61.3361Z" fill="#F78117"/>
<path d="M61.5463 11.2779L61.738 11.1649L61.8668 11.2621C61.8668 11.2621 61.6908 11.2779 61.5463 11.2779Z" fill="#F78117"/>
<path d="M62.0927 11.0047C62.0927 11.0047 62.0611 11.1334 61.9797 11.1649C61.9797 11.1649 61.9324 11.1492 61.851 11.0677L61.7538 11.1492C61.7538 11.1492 61.8667 11.2464 61.9955 11.2621C61.9955 11.2621 62.1084 11.2306 62.1715 11.0861L62.09 11.0047H62.0927Z" fill="#F78117"/>
<path d="M62.1085 11.2464L62.2057 11.1019L62.3502 11.1991C62.3502 11.1991 62.2215 11.2306 62.1085 11.2464V11.2464Z" fill="#F78117"/>
<path d="M61.9483 11.1019C61.9483 11.1019 61.9798 11.1176 62.0113 11.0861C62.0113 11.0861 62.0429 11.0388 62.0429 10.9574C62.0429 10.9574 62.0429 10.9259 62.0113 10.8943L61.9299 10.7814C61.9299 10.7814 61.9614 10.8444 61.9141 10.9416C61.9141 10.9416 61.8668 10.9889 61.8826 11.0388C61.8826 11.0388 61.8984 11.0703 61.9457 11.1019H61.9483Z" fill="#F78117"/>
<path d="M62.8966 11.0835C62.8966 11.0835 62.6707 11.1649 62.429 11.1807C62.429 11.1807 61.8983 10.9889 61.8011 10.1982L61.9299 10.1824C61.9299 10.1824 62.0428 10.65 62.3003 10.8576C62.3003 10.8576 62.5105 11.0494 62.8782 11.0336L62.894 11.0809L62.8966 11.0835Z" fill="#F78117"/>
<path d="M63.1225 10.7788C63.1225 10.7788 63.1067 10.9889 62.7678 10.9889C62.7678 10.9889 62.4132 10.9574 62.2214 10.7C62.2214 10.7 62.0612 10.474 61.9797 10.1693L62.0769 10.1535C62.0769 10.1535 62.1242 10.3138 62.2057 10.411C62.2057 10.411 62.2687 10.4583 62.253 10.3795C62.253 10.3795 62.1715 10.2507 62.1242 10.1378L62.2214 10.1063C62.2214 10.1063 62.3659 10.411 62.5918 10.5739L62.5288 10.6369C62.5288 10.6369 62.513 10.6842 62.5603 10.6684C62.5603 10.6684 62.6418 10.524 62.8651 10.5397C62.8651 10.5397 63.1383 10.5555 63.1225 10.7814V10.7788Z" fill="#F78117"/>
<path d="M61.3362 11.2779C61.3362 11.2779 61.4991 11.2779 61.6908 11.1334C61.6908 11.1334 61.8668 11.0204 61.8826 10.763C61.8826 10.763 61.8826 10.6658 61.8196 10.4898C61.8196 10.4898 61.7565 10.3453 61.7565 10.2166H61.5647C61.5647 10.2166 61.6777 10.4083 61.6777 10.6185C61.6777 10.6185 61.6935 10.9731 61.3388 11.1019V11.2779H61.3362Z" fill="#F78117"/>
<path d="M61.3283 10.1667V9.78049C61.3283 9.78049 61.8038 9.79625 62.1716 9.65176C62.1716 9.65176 62.3634 9.55456 62.4448 9.71481C62.4448 9.71481 62.542 9.8593 62.3634 9.98803C62.3634 9.98803 62.0008 10.164 61.3257 10.164L61.3283 10.1667Z" fill="#F78117"/>
<path d="M61.4491 10.2324H61.5121C61.5121 10.2324 61.6093 10.3926 61.6093 10.6343C61.6093 10.6343 61.5936 10.939 61.3335 11.052V10.939C61.3335 10.939 61.5437 10.8261 61.5437 10.5686C61.5437 10.5686 61.5437 10.3926 61.4465 10.2297L61.4491 10.2324Z" fill="#F78117"/>
<path d="M61.3362 10.8917V10.6816C61.3362 10.6816 61.3835 10.6816 61.3835 10.6185V10.2324C61.3835 10.2324 61.4649 10.3611 61.4807 10.5712C61.4807 10.5712 61.4728 10.7972 61.3362 10.8917Z" fill="#F78117"/>
<path d="M61.3282 15.468V15.179L61.1995 14.9689H61.0865L61.3282 15.468Z" fill="#F78117"/>
<path d="M61.1128 14.9137L61.3361 14.7351V14.8165L61.2074 14.9137H61.1128Z" fill="#F78117"/>
<path d="M61.3362 15.1055L61.2416 14.9453L61.3362 14.8822V15.1055Z" fill="#F78117"/>
<path d="M61.1365 14.8244C61.1365 14.8244 61.1996 14.391 61.168 13.9391C61.168 13.9391 61.168 13.4085 61.0236 13.0853H61.1523L61.2968 13.2771V14.6931L61.1365 14.8218V14.8244Z" fill="#F78117"/>
<path d="M61.3361 13.2403L61.2074 13.0801H61.3361V13.2403Z" fill="#F78117"/>
<path d="M61.3361 12.8699L61.2074 13.0301H61.3361V12.8699Z" fill="#F78117"/>
<path d="M61.0156 13.0301H61.1444L61.3046 12.82V11.7744H61.0314C61.0314 11.7744 61.1286 12.0476 61.1128 12.5783C61.1128 12.5783 61.0971 12.8673 61.0156 13.0275V13.0301Z" fill="#F78117"/>
<path d="M60.5638 15.4759C60.5638 15.4759 60.6768 15.2027 60.5638 14.9453C60.5638 14.9453 60.4508 14.7351 60.1619 14.6248L60.2433 14.496C60.2433 14.496 60.774 14.7692 60.8055 15.074C60.8055 15.074 60.8528 15.363 60.5638 15.4759Z" fill="#F78117"/>
<path d="M60.1146 14.3988C60.1146 14.3988 60.2433 14.4803 60.1618 14.5591C60.1618 14.5591 60.0174 14.672 59.8413 14.5591C59.8413 14.5591 59.7442 14.4776 59.8571 14.3988C59.8571 14.3988 59.9202 14.2859 59.8098 14.3515C59.8098 14.3515 59.6496 14.4803 59.4394 14.3358C59.4394 14.3358 59.2292 14.1755 59.3764 13.9969C59.3764 13.9969 59.4394 13.9654 59.5209 13.9654C59.5209 13.9654 59.5681 13.9023 59.4736 13.9023C59.4736 13.9023 59.1688 13.9995 58.9744 13.6449C58.9744 13.6449 58.8142 13.3401 59.2004 13.2429C59.2004 13.2429 59.2976 13.2114 59.2004 13.1799C59.2004 13.1799 58.7511 13.2771 58.7012 12.8252C58.7012 12.8252 58.6539 12.5047 59.0217 12.439C59.0217 12.439 59.1189 12.3918 59.0217 12.376C59.0217 12.376 58.4911 12.3918 58.5068 11.7797C58.5068 11.7797 58.5226 11.362 58.9088 11.2805C58.9088 11.2805 59.2792 11.2332 59.3764 11.6194C59.3764 11.6194 58.9429 11.4907 58.9429 11.8453C58.9429 11.8453 58.9429 12.0371 59.2319 12.0555C59.2319 12.0555 59.4237 12.0713 59.6181 11.7508L59.7153 11.5747L59.907 11.6378C59.907 11.6378 59.4394 12.2 59.4736 12.9093C59.4736 12.9093 59.4263 13.7289 60.1172 14.4041L60.1146 14.3988Z" fill="#F78117"/>
<path d="M60.837 14.9925C60.837 14.9925 60.7556 14.7351 60.4666 14.5748C60.4666 14.5748 59.8702 14.3331 59.6312 13.4977C59.6312 13.4977 59.245 12.6282 59.9517 11.6641L60.1618 11.6956C60.1618 11.6956 59.7757 12.0502 59.7757 12.6781C59.7757 12.6781 59.7599 13.3848 60.3063 13.3848C60.3063 13.3848 60.548 13.4005 60.6452 13.1116C60.6452 13.1116 60.7083 12.9198 60.6295 12.7411C60.6295 12.7411 60.9184 12.8226 60.9342 13.1588C60.9342 13.1588 60.95 13.5923 60.5638 13.6895C60.5638 13.6895 60.1146 13.7053 60.1618 13.9942C60.1618 13.9942 60.1461 14.1545 60.4823 14.4435C60.4823 14.4435 60.8028 14.6852 60.837 14.9899V14.9925Z" fill="#F78117"/>
<path d="M59.8413 12.5967C59.8413 12.5967 59.8413 12.0503 60.2432 11.6956L60.4849 11.7271C60.4849 11.7271 59.97 12.0319 59.8413 12.5967Z" fill="#F78117"/>
<path d="M61.3362 11.7455C61.3362 11.7455 60.3563 11.714 59.6496 11.5196C59.6496 11.5196 59.4579 11.4382 59.5209 11.2622C59.5209 11.2622 59.5524 11.1019 59.7626 11.1334C59.7626 11.1334 60.5507 11.3436 61.3362 11.3436V11.7455Z" fill="#F78117"/>
<path d="M61.1286 11.2779L60.9368 11.1649L60.8081 11.2621C60.8081 11.2621 60.9841 11.2779 61.1286 11.2779Z" fill="#F78117"/>
<path d="M60.5822 11.0047C60.5822 11.0047 60.6138 11.1334 60.6952 11.1649C60.6952 11.1649 60.7425 11.1492 60.8239 11.0677L60.9211 11.1492C60.9211 11.1492 60.8082 11.2464 60.6794 11.2621C60.6794 11.2621 60.5665 11.2306 60.5034 11.0861L60.5849 11.0047H60.5822Z" fill="#F78117"/>
<path d="M60.5638 11.2464L60.4666 11.1019L60.3221 11.1991C60.3221 11.1991 60.4509 11.2306 60.5638 11.2464V11.2464Z" fill="#F78117"/>
<path d="M60.7267 11.1019C60.7267 11.1019 60.6951 11.1176 60.6636 11.0861C60.6636 11.0861 60.6321 11.0388 60.6321 10.9574C60.6321 10.9574 60.6321 10.9259 60.6636 10.8943L60.745 10.7814C60.745 10.7814 60.7135 10.8444 60.7608 10.9416C60.7608 10.9416 60.8081 10.9889 60.7923 11.0388C60.7923 11.0388 60.7766 11.0703 60.7293 11.1019H60.7267Z" fill="#F78117"/>
<path d="M59.7756 11.0835C59.7756 11.0835 60.0016 11.1649 60.2433 11.1807C60.2433 11.1807 60.7739 10.9889 60.8711 10.1982L60.7424 10.1824C60.7424 10.1824 60.6294 10.65 60.372 10.8576C60.372 10.8576 60.1618 11.0494 59.794 11.0336L59.7783 11.0809L59.7756 11.0835Z" fill="#F78117"/>
<path d="M59.5524 10.7788C59.5524 10.7788 59.5682 10.9889 59.9071 10.9889C59.9071 10.9889 60.2617 10.9574 60.4535 10.7C60.4535 10.7 60.6137 10.474 60.6952 10.1693L60.598 10.1535C60.598 10.1535 60.5507 10.3138 60.4692 10.411C60.4692 10.411 60.4062 10.4583 60.422 10.3795C60.422 10.3795 60.5034 10.2507 60.5507 10.1378L60.4535 10.1063C60.4535 10.1063 60.309 10.411 60.0831 10.5739L60.1461 10.6369C60.1461 10.6369 60.1619 10.6842 60.1146 10.6684C60.1146 10.6684 60.0332 10.524 59.8099 10.5397C59.8099 10.5397 59.5367 10.5555 59.5524 10.7814V10.7788Z" fill="#F78117"/>
<path d="M61.3362 11.2779C61.3362 11.2779 61.1759 11.2779 60.9841 11.1334C60.9841 11.1334 60.8081 11.0204 60.7924 10.763C60.7924 10.763 60.7924 10.6658 60.8554 10.4898C60.8554 10.4898 60.9185 10.3453 60.9185 10.2166H61.1102C61.1102 10.2166 60.9973 10.4083 60.9973 10.6185C60.9973 10.6185 60.9815 10.9731 61.3335 11.1019V11.2779H61.3362Z" fill="#F78117"/>
<path d="M61.3441 10.1667V9.78049C61.3441 9.78049 60.8712 9.79625 60.5008 9.65176C60.5008 9.65176 60.309 9.55456 60.2276 9.71481C60.2276 9.71481 60.1304 9.8593 60.309 9.98803C60.309 9.98803 60.6715 10.164 61.3467 10.164L61.3441 10.1667Z" fill="#F78117"/>
<path d="M61.2231 10.2324H61.1601C61.1601 10.2324 61.0629 10.3926 61.0629 10.6343C61.0629 10.6343 61.0786 10.939 61.3335 11.0546V10.9417C61.3335 10.9417 61.1259 10.8287 61.1259 10.5712C61.1259 10.5712 61.1259 10.3952 61.2231 10.2324V10.2324Z" fill="#F78117"/>
<path d="M61.3388 10.8917V10.6816C61.3388 10.6816 61.2889 10.6816 61.2889 10.6185V10.2324C61.2889 10.2324 61.2074 10.3611 61.1917 10.5712C61.1917 10.5712 61.2074 10.7972 61.3361 10.8944L61.3388 10.8917Z" fill="#F78117"/>
<path d="M53.6022 7.755H53.8938L54.1013 7.88373V7.99669L53.6022 7.755Z" fill="#F78117"/>
<path d="M54.1591 7.97306L54.3351 7.74713H54.2536L54.1591 7.87586V7.97306Z" fill="#F78117"/>
<path d="M53.9646 7.74713L54.1248 7.84433L54.1905 7.74713H53.9646Z" fill="#F78117"/>
<path d="M54.2457 7.94681C54.2457 7.94681 54.6792 7.88376 55.131 7.91529C55.131 7.91529 55.6617 7.91529 55.9848 8.05977V7.93105L55.7931 7.78656H54.3771L54.2484 7.94681H54.2457Z" fill="#F78117"/>
<path d="M55.8298 7.74713L55.9927 7.87586V7.74713H55.8298Z" fill="#F78117"/>
<path d="M56.2003 7.74713L56.04 7.87586V7.74713H56.2003Z" fill="#F78117"/>
<path d="M56.04 8.06766V7.93894L56.2502 7.77869H57.2958V8.0519C57.2958 8.0519 57.0225 7.9547 56.4919 7.97046C56.4919 7.97046 56.2029 7.98622 56.0427 8.06766H56.04Z" fill="#F78117"/>
<path d="M53.5942 8.51953C53.5942 8.51953 53.8675 8.40656 54.1249 8.51953C54.1249 8.51953 54.3351 8.63249 54.4454 8.92146L54.5741 8.84003C54.5741 8.84003 54.3009 8.30936 53.9962 8.27784C53.9962 8.27784 53.7072 8.23055 53.5942 8.51953V8.51953Z" fill="#F78117"/>
<path d="M54.674 8.9687C54.674 8.9687 54.5925 8.83998 54.5137 8.92141C54.5137 8.92141 54.4007 9.0659 54.5137 9.24191C54.5137 9.24191 54.5951 9.33911 54.674 9.22615C54.674 9.22615 54.7869 9.1631 54.7212 9.27344C54.7212 9.27344 54.5925 9.43369 54.737 9.64385C54.737 9.64385 54.8973 9.85401 55.0759 9.7069C55.0759 9.7069 55.1074 9.64385 55.1074 9.56241C55.1074 9.56241 55.1705 9.51513 55.1705 9.6097C55.1705 9.6097 55.0733 9.91444 55.4279 10.1088C55.4279 10.1088 55.7327 10.2691 55.8299 9.88291C55.8299 9.88291 55.8614 9.78571 55.8929 9.88291C55.8929 9.88291 55.7957 10.3321 56.2476 10.382C56.2476 10.382 56.5681 10.4293 56.6337 10.0615C56.6337 10.0615 56.681 9.96435 56.6968 10.0615C56.6968 10.0615 56.681 10.5922 57.2931 10.5764C57.2931 10.5764 57.7108 10.5607 57.7923 10.1745C57.7923 10.1745 57.8395 9.8041 57.4534 9.7069C57.4534 9.7069 57.5821 10.1404 57.2274 10.1404C57.2274 10.1404 57.0357 10.1404 57.0173 9.85139C57.0173 9.85139 57.0015 9.65961 57.322 9.46521L57.498 9.36801L57.435 9.17624C57.435 9.17624 56.8728 9.64385 56.1635 9.6097C56.1635 9.6097 55.3439 9.65699 54.6687 8.96607L54.674 8.9687Z" fill="#F78117"/>
<path d="M54.0776 8.24628C54.0776 8.24628 54.3351 8.32772 54.4953 8.61669C54.4953 8.61669 54.737 9.21303 55.5724 9.45209C55.5724 9.45209 56.442 9.83826 57.4061 9.13159L57.3746 8.92143C57.3746 8.92143 57.0199 9.3076 56.3921 9.3076C56.3921 9.3076 55.6854 9.32336 55.6854 8.77694C55.6854 8.77694 55.6696 8.53525 55.9586 8.43805C55.9586 8.43805 56.1504 8.375 56.329 8.45381C56.329 8.45381 56.2476 8.16484 55.9113 8.14908C55.9113 8.14908 55.4778 8.13331 55.3806 8.51949C55.3806 8.51949 55.3649 8.96871 55.0759 8.92143C55.0759 8.92143 54.9157 8.93719 54.6267 8.60093C54.6267 8.60093 54.385 8.28043 54.0803 8.24628H54.0776Z" fill="#F78117"/>
<path d="M56.4735 9.24195C56.4735 9.24195 57.0199 9.24195 57.3746 8.84002L57.3431 8.59833C57.3431 8.59833 57.0383 9.11323 56.4735 9.24195Z" fill="#F78117"/>
<path d="M57.3273 7.74451C57.3273 7.74451 57.3588 8.72702 57.5532 9.4337C57.5532 9.4337 57.6346 9.62547 57.8106 9.56242C57.8106 9.56242 57.9709 9.5309 57.9394 9.32073C57.9394 9.32073 57.7292 8.53262 57.7292 7.74188H57.3273V7.74451Z" fill="#F78117"/>
<path d="M57.7949 7.95471L57.9079 8.14649L57.8107 8.27521C57.8107 8.27521 57.7949 8.0992 57.7949 7.95471Z" fill="#F78117"/>
<path d="M58.0681 8.50374C58.0681 8.50374 57.9394 8.47222 57.9079 8.39078C57.9079 8.39078 57.9236 8.3435 58.0051 8.26206L57.9236 8.16486C57.9236 8.16486 57.8264 8.27782 57.8107 8.40654C57.8107 8.40654 57.8422 8.51951 57.9867 8.58256L58.0681 8.50112V8.50374Z" fill="#F78117"/>
<path d="M57.8264 8.51947L57.9709 8.61667L57.8737 8.76116C57.8737 8.76116 57.8422 8.63243 57.8264 8.51947V8.51947Z" fill="#F78117"/>
<path d="M57.9709 8.35661C57.9709 8.35661 57.9551 8.38814 57.9866 8.41966C57.9866 8.41966 58.0339 8.45119 58.1153 8.45119C58.1153 8.45119 58.1469 8.45119 58.1784 8.41966L58.2914 8.33822C58.2914 8.33822 58.2283 8.36975 58.1311 8.32246C58.1311 8.32246 58.0838 8.27517 58.0339 8.29094C58.0339 8.29094 58.0024 8.3067 57.9709 8.35399V8.35661Z" fill="#F78117"/>
<path d="M57.9866 9.30763C57.9866 9.30763 57.9052 9.08171 57.8894 8.84002C57.8894 8.84002 58.0812 8.30936 58.8719 8.21216L58.8877 8.34088C58.8877 8.34088 58.4201 8.45385 58.2125 8.7113C58.2125 8.7113 58.0208 8.92146 58.0365 9.28925L57.9892 9.30501L57.9866 9.30763Z" fill="#F78117"/>
<path d="M58.2913 9.53089C58.2913 9.53089 58.0812 9.51512 58.0812 9.17624C58.0812 9.17624 58.1127 8.82158 58.3702 8.62981C58.3702 8.62981 58.5961 8.46956 58.9008 8.38812L58.9166 8.48532C58.9166 8.48532 58.7563 8.53261 58.6591 8.61405C58.6591 8.61405 58.6118 8.6771 58.6907 8.66134C58.6907 8.66134 58.8194 8.5799 58.9323 8.53261L58.9639 8.62981C58.9639 8.62981 58.6591 8.7743 58.4962 9.00022L58.4332 8.93717C58.4332 8.93717 58.3859 8.92141 58.4017 8.9687C58.4017 8.9687 58.5462 9.05014 58.5304 9.27344C58.5304 9.27344 58.5146 9.54665 58.2887 9.53089H58.2913Z" fill="#F78117"/>
<path d="M57.7949 7.74451C57.7949 7.74451 57.7949 7.90738 57.9394 8.09916C57.9394 8.09916 58.0524 8.27517 58.3098 8.29093C58.3098 8.29093 58.407 8.29093 58.583 8.22788C58.583 8.22788 58.7275 8.16483 58.8562 8.16483V7.97306C58.8562 7.97306 58.6645 8.08602 58.4543 8.08602C58.4543 8.08602 58.0997 8.10178 57.9709 7.74713H57.7949V7.74451Z" fill="#F78117"/>
<path d="M58.9034 7.73926H59.2896C59.2896 7.73926 59.2739 8.21475 59.4183 8.58254C59.4183 8.58254 59.5155 8.77431 59.3553 8.85575C59.3553 8.85575 59.2108 8.95295 59.0821 8.77432C59.0821 8.77432 58.9061 8.41178 58.9061 7.73663L58.9034 7.73926Z" fill="#F78117"/>
<path d="M58.8378 7.8601V7.92315C58.8378 7.92315 58.6776 8.02035 58.4359 8.02035C58.4359 8.02035 58.1312 8.00458 58.0182 7.74451H58.1311C58.1311 7.74451 58.2441 7.95467 58.5016 7.95467C58.5016 7.95467 58.6776 7.95467 58.8404 7.85747L58.8378 7.8601Z" fill="#F78117"/>
<path d="M58.1785 7.74713H58.3886C58.3886 7.74713 58.3886 7.79442 58.4517 7.79442H58.8379C58.8379 7.79442 58.7091 7.87586 58.499 7.89162C58.499 7.89162 58.273 7.88374 58.1785 7.74713V7.74713Z" fill="#F78117"/>
<path d="M53.6022 7.73925H53.8938L54.1013 7.61052V7.49756L53.6022 7.73925Z" fill="#F78117"/>
<path d="M54.1591 7.52124L54.3351 7.74717H54.2536L54.1591 7.61844V7.52124Z" fill="#F78117"/>
<path d="M53.9646 7.74716L54.1248 7.64996L54.1905 7.74716H53.9646Z" fill="#F78117"/>
<path d="M54.2457 7.54485C54.2457 7.54485 54.6792 7.6079 55.131 7.57637C55.131 7.57637 55.6617 7.57637 55.9848 7.43188V7.56061L55.7931 7.7051H54.3771L54.2484 7.54485H54.2457Z" fill="#F78117"/>
<path d="M55.8298 7.74713L55.9927 7.61841V7.74713H55.8298Z" fill="#F78117"/>
<path d="M56.2003 7.74713L56.04 7.61841V7.74713H56.2003Z" fill="#F78117"/>
<path d="M56.04 7.42401V7.55274L56.2502 7.71299H57.2958V7.43977C57.2958 7.43977 57.0225 7.53697 56.4919 7.52121C56.4919 7.52121 56.2029 7.50545 56.0427 7.42401H56.04Z" fill="#F78117"/>
<path d="M53.5942 6.97481C53.5942 6.97481 53.8675 7.08778 54.1249 6.97481C54.1249 6.97481 54.3351 6.86185 54.4454 6.57288L54.5741 6.65431C54.5741 6.65431 54.3009 7.18498 53.9962 7.2165C53.9962 7.2165 53.7072 7.26379 53.5942 6.97481V6.97481Z" fill="#F78117"/>
<path d="M54.674 6.52557C54.674 6.52557 54.5925 6.6543 54.5137 6.57286C54.5137 6.57286 54.4007 6.42837 54.5137 6.25236C54.5137 6.25236 54.5951 6.15516 54.674 6.26812C54.674 6.26812 54.7869 6.33117 54.7212 6.22084C54.7212 6.22084 54.5925 6.06059 54.737 5.85043C54.737 5.85043 54.8973 5.64026 55.0759 5.78738C55.0759 5.78738 55.1074 5.85042 55.1074 5.93186C55.1074 5.93186 55.1705 5.97915 55.1705 5.88458C55.1705 5.88458 55.0733 5.57984 55.4279 5.38544C55.4279 5.38544 55.7327 5.22519 55.8299 5.61136C55.8299 5.61136 55.8614 5.70856 55.8929 5.61136C55.8929 5.61136 55.7957 5.16214 56.2476 5.11223C56.2476 5.11223 56.5681 5.06494 56.6337 5.43273C56.6337 5.43273 56.681 5.52993 56.6968 5.43273C56.6968 5.43273 56.681 4.90206 57.2931 4.91782C57.2931 4.91782 57.7108 4.93359 57.7923 5.31976C57.7923 5.31976 57.8395 5.69018 57.4534 5.78738C57.4534 5.78738 57.5821 5.35391 57.2274 5.35391C57.2274 5.35391 57.0357 5.35391 57.0173 5.64289C57.0173 5.64289 57.0015 5.83466 57.322 6.02906L57.498 6.12626L57.435 6.31804C57.435 6.31804 56.8728 5.85042 56.1635 5.88458C56.1635 5.88458 55.3439 5.83729 54.6687 6.5282L54.674 6.52557Z" fill="#F78117"/>
<path d="M54.0776 7.24801C54.0776 7.24801 54.3351 7.16657 54.4953 6.8776C54.4953 6.8776 54.737 6.28126 55.5724 6.0422C55.5724 6.0422 56.442 5.65602 57.4061 6.3627L57.3746 6.57286C57.3746 6.57286 57.0199 6.18669 56.3921 6.18669C56.3921 6.18669 55.6854 6.17092 55.6854 6.71735C55.6854 6.71735 55.6696 6.95904 55.9586 7.05624C55.9586 7.05624 56.1504 7.11929 56.329 7.04047C56.329 7.04047 56.2476 7.32945 55.9113 7.34521C55.9113 7.34521 55.4778 7.36097 55.3806 6.9748C55.3806 6.9748 55.3649 6.52557 55.0759 6.57286C55.0759 6.57286 54.9157 6.5571 54.6267 6.89336C54.6267 6.89336 54.385 7.21386 54.0803 7.24801H54.0776Z" fill="#F78117"/>
<path d="M56.4735 6.24976C56.4735 6.24976 57.0199 6.24976 57.3746 6.65169L57.3431 6.89338C57.3431 6.89338 57.0383 6.37848 56.4735 6.24976V6.24976Z" fill="#F78117"/>
<path d="M57.3273 7.74451C57.3273 7.74451 57.3588 6.76463 57.5532 6.05795C57.5532 6.05795 57.6346 5.86618 57.8106 5.92923C57.8106 5.92923 57.9709 5.96075 57.9394 6.17092C57.9394 6.17092 57.7292 6.95903 57.7292 7.74451H57.3273V7.74451Z" fill="#F78117"/>
<path d="M57.7949 7.53699L57.9079 7.34522L57.8107 7.21649C57.8107 7.21649 57.7949 7.3925 57.7949 7.53699Z" fill="#F78117"/>
<path d="M58.0681 6.99055C58.0681 6.99055 57.9394 7.02208 57.9079 7.10352C57.9079 7.10352 57.9236 7.1508 58.0051 7.23224L57.9236 7.32944C57.9236 7.32944 57.8264 7.21648 57.8107 7.08776C57.8107 7.08776 57.8422 6.97479 57.9867 6.91174L58.0681 6.99318V6.99055Z" fill="#F78117"/>
<path d="M57.8264 6.97478L57.9709 6.87758L57.8737 6.73309C57.8737 6.73309 57.8422 6.86182 57.8264 6.97478Z" fill="#F78117"/>
<path d="M57.9709 7.13504C57.9709 7.13504 57.9551 7.10352 57.9866 7.07199C57.9866 7.07199 58.0339 7.04047 58.1153 7.04047C58.1153 7.04047 58.1469 7.04047 58.1784 7.07199L58.2914 7.15343C58.2914 7.15343 58.2283 7.12191 58.1311 7.16919C58.1311 7.16919 58.0838 7.21648 58.0339 7.20072C58.0339 7.20072 58.0024 7.18495 57.9709 7.13767V7.13504Z" fill="#F78117"/>
<path d="M57.9866 6.18671C57.9866 6.18671 57.9052 6.41263 57.8894 6.65432C57.8894 6.65432 58.0812 7.18498 58.8719 7.28218L58.8877 7.15346C58.8877 7.15346 58.4201 7.0405 58.2125 6.78305C58.2125 6.78305 58.0208 6.57288 58.0365 6.2051L57.9892 6.18933L57.9866 6.18671Z" fill="#F78117"/>
<path d="M58.2913 5.96074C58.2913 5.96074 58.0812 5.9765 58.0812 6.31539C58.0812 6.31539 58.1127 6.67004 58.3702 6.86182C58.3702 6.86182 58.5961 7.02206 58.9008 7.1035L58.9166 7.0063C58.9166 7.0063 58.7563 6.95902 58.6591 6.87758C58.6591 6.87758 58.6118 6.81453 58.6907 6.83029C58.6907 6.83029 58.8194 6.91173 58.9323 6.95902L58.9639 6.86182C58.9639 6.86182 58.6591 6.71733 58.4962 6.4914L58.4332 6.55445C58.4332 6.55445 58.3859 6.57021 58.4017 6.52293C58.4017 6.52293 58.5462 6.44149 58.5304 6.21819C58.5304 6.21819 58.5146 5.94498 58.2887 5.96074H58.2913Z" fill="#F78117"/>
<path d="M57.7949 7.74454C57.7949 7.74454 57.7949 7.58429 57.9394 7.39252C57.9394 7.39252 58.0524 7.21651 58.3098 7.20074C58.3098 7.20074 58.407 7.20074 58.583 7.26379C58.583 7.26379 58.7275 7.32684 58.8562 7.32684V7.51862C58.8562 7.51862 58.6645 7.40565 58.4543 7.40565C58.4543 7.40565 58.0997 7.38989 57.9709 7.74192H57.7949V7.74454Z" fill="#F78117"/>
<path d="M58.9034 7.75501H59.2896C59.2896 7.75501 59.2739 7.28214 59.4183 6.91173C59.4183 6.91173 59.5155 6.71996 59.3553 6.63852C59.3553 6.63852 59.2108 6.54132 59.0821 6.71996C59.0821 6.71996 58.9061 7.08249 58.9061 7.75764L58.9034 7.75501Z" fill="#F78117"/>
<path d="M58.8378 7.63419V7.57114C58.8378 7.57114 58.6775 7.47394 58.4358 7.47394C58.4358 7.47394 58.1311 7.4897 58.0155 7.74452H58.1285C58.1285 7.74452 58.2414 7.53699 58.4989 7.53699C58.4989 7.53699 58.6749 7.53699 58.8378 7.63419V7.63419Z" fill="#F78117"/>
<path d="M58.1784 7.74715H58.3886C58.3886 7.74715 58.3886 7.69724 58.4516 7.69724H58.8378C58.8378 7.69724 58.7091 7.6158 58.4989 7.60004C58.4989 7.60004 58.273 7.6158 58.1758 7.74452L58.1784 7.74715Z" fill="#F78117"/>
<path d="M61.3362 9.39955C62.3024 9.39955 63.0858 8.61622 63.0858 7.64994C63.0858 6.68366 62.3024 5.90033 61.3362 5.90033C60.3699 5.90033 59.5865 6.68366 59.5865 7.64994C59.5865 8.61622 60.3699 9.39955 61.3362 9.39955Z" fill="#F78117"/>
</g>
<defs>
<clipPath id="clip0_26_27">
<rect width="109.637" height="64" fill="white"/>
</clipPath>
</defs>
</svg>
